<svg xmlns="http://www.w3.org/2000/svg" xmlns:xlink="http://www.w3.org/1999/xlink" viewBox="0 0 687.97 645.6">
    <defs>
        <linearGradient id="linear-gradient" y1="322.8" x2="599.79" y2="322.8" gradientUnits="userSpaceOnUse">
            <stop offset="0" stop-color="#267ba0"/>
            <stop offset="1" stop-color="#71c1b3"/>
            <stop offset="1" stop-color="#f1f3be"/>
        </linearGradient>
        <linearGradient id="linear-gradient-2" x1="701.06" y1="327.96" x2="175.87" y2="320.53" gradientUnits="userSpaceOnUse">
            <stop offset="0" stop-color="#71c1b3"/>
            <stop offset="1" stop-color="#b3dcc0"/>
            <stop offset="1" stop-color="#71c1b3"/>
            <stop offset="1" stop-color="#f1f3be"/>
        </linearGradient>
    </defs>
    <title>logo</title>
    <g id="Layer_2" data-name="Layer 2">
        <g id="wholeWrapper" data-name="Layer 1">
            <g>
                <path class="outer" d="M538.36,390.33a61.13,61.13,0,0,0-58,41.83,195.54,195.54,0,0,1-28.92,36.77,194.3,194.3,0,0,1-331.69-137.4c0-2.82.07-5.63.19-8.44h.35c-.14-3-.22-6-.22-9a194.31,194.31,0,0,1,331.7-137.4,195.49,195.49,0,0,1,28.91,36.77,61.11,61.11,0,1,0,103.94-59.53A314.05,314.05,0,0,0,.33,314.07c0,2.82,0,5.63.12,8.44H.14Q0,327,0,331.53A314.18,314.18,0,0,0,584.31,491.69a61.09,61.09,0,0,0-45.95-101.36Z" style="fill: url(#linear-gradient)"/>
                <path class="inner" d="M619.29,262.57c-14.84,0-27.6,6.27-39.86,12.6-30.72,15.85-94.16,27.2-136.82-20.24-35.22-39.18-70.53-81-126.68-81A139.53,139.53,0,0,0,176.4,313.48c0,3,.11,6,.3,9-.19,3-.3,6-.3,9A139.54,139.54,0,0,0,315.93,471.07c56.15,0,91.46-41.81,126.68-81,42.66-47.44,106.1-36.1,136.82-20.24,12.26,6.32,25,12.6,39.86,12.6A69.34,69.34,0,0,0,688,322.51,69.33,69.33,0,0,0,619.29,262.57Z" style="fill: url(#linear-gradient-2)"/>
            </g>
        </g>
    </g>
</svg>
