<svg xmlns="http://www.w3.org/2000/svg" xmlns:xlink="http://www.w3.org/1999/xlink" viewBox="0 0 1628.4 257.39">
  <defs>
    <linearGradient id="linear-gradient" y1="128.7" x2="239.13" y2="128.7" gradientUnits="userSpaceOnUse">
      <stop offset="0" stop-color="#267ba0"/>
      <stop offset="1" stop-color="#71c1b3"/>
      <stop offset="1" stop-color="#f1f3be"/>
    </linearGradient>
    <linearGradient id="linear-gradient-2" x1="279.5" y1="130.75" x2="70.12" y2="127.79" gradientUnits="userSpaceOnUse">
      <stop offset="0" stop-color="#71c1b3"/>
      <stop offset="1" stop-color="#b3dcc0"/>
      <stop offset="1" stop-color="#71c1b3"/>
      <stop offset="1" stop-color="#f1f3be"/>
    </linearGradient>
    <linearGradient id="linear-gradient-3" x1="1724.21" y1="128.7" x2="289.87" y2="128.7" xlink:href="#linear-gradient"/>
  </defs>
  <title>Asset 6</title>
  <g id="Layer_2" data-name="Layer 2">
    <g id="Layer_1-2" data-name="Layer 1">
      <g>
        <g>
          <path d="M214.64,155.62A24.31,24.31,0,0,0,195.42,165a24,24,0,0,0-3.9,7.29A77.89,77.89,0,0,1,180,187,77.47,77.47,0,0,1,47.75,132.18c0-1.13,0-2.25.08-3.37H48c-.05-1.19-.08-2.39-.08-3.6A77.46,77.46,0,0,1,180.12,70.44,78,78,0,0,1,191.65,85.1a24.37,24.37,0,0,0,23.12,16.67,24.35,24.35,0,0,0,18.32-40.41,125.68,125.68,0,0,0-59-51.51A125.19,125.19,0,0,0,.13,125.21c0,1.13,0,2.25,0,3.37H.05c0,1.2,0,2.4,0,3.6a125.19,125.19,0,0,0,213.76,88.54A125.71,125.71,0,0,0,233,196a24.36,24.36,0,0,0-18.32-40.41Z" style="fill: url(#linear-gradient)"/>
          <path d="M246.9,104.68c-5.91,0-11,2.5-15.89,5-12.25,6.33-37.54,10.85-54.55-8.06C162.42,86,148.34,69.35,126,69.35A55.63,55.63,0,0,0,70.33,125q0,1.81.12,3.6-.12,1.78-.12,3.6A55.63,55.63,0,0,0,126,187.81c22.38,0,36.46-16.67,50.5-32.29,17-18.91,42.3-14.39,54.55-8.07,4.89,2.52,10,5,15.89,5a27.64,27.64,0,0,0,27.38-23.9A27.64,27.64,0,0,0,246.9,104.68Z" style="fill: url(#linear-gradient-2)"/>
        </g>
        <g>
          <path d="M374.73,16h30.89V241.38H374.73Z" style="fill: url(#linear-gradient-3)"/>
          <path d="M609,16h55.93q29.21,0,42.43,15.86t13.21,46.47q0,27.54-14.19,42.85t-41.17,15.3H640.43V241.38H609ZM654.9,114q13.9,0,21.56-3.06a19.51,19.51,0,0,0,11-10.57q3.34-7.51,3.34-21.7,0-17.25-2.5-25.32a17.68,17.68,0,0,0-9.88-11.41q-7.38-3.35-23.23-3.34H640.43V114Z" style="fill: url(#linear-gradient-3)"/>
          <path d="M909.47,16h31.44v97.38h57.87V16h31.44V241.38H998.78V135.93H940.91V241.38H909.47Z" style="fill: url(#linear-gradient-3)"/>
          <path d="M1232.49,16h87.36V39.39h-55.92V114h45.35v22.26h-45.35v82.63h56.48v22.54h-87.92Z" style="fill: url(#linear-gradient-3)"/>
          <path d="M1512.66,16H1558q34.21,0,50.22,14.06t16,45.76q0,43.41-27.82,52.59l32,113h-30.33l-29.49-105.73H1544.1V241.38h-31.44Zm43.4,97.1q20.31,0,29.08-8.06t8.76-29.22q0-13.9-3.06-21.84A21,21,0,0,0,1580,42.31q-7.8-3.77-22-3.76H1544.1v74.56Z" style="fill: url(#linear-gradient-3)"/>
        </g>
      </g>
    </g>
  </g>
</svg>
