<svg height="511pt" viewBox="-8 0 511 511.02586" width="511pt" xmlns="http://www.w3.org/2000/svg"><g fill="#bee4f1"><path d="m460.894531 96.359375c-66.320312-42.144531-143.054687-64.421875-221.882812-64.421875-78.824219 0-155.542969 22.277344-221.878907 64.421875l-17.1210932-26.957031c71.4492192-45.398438 154.1093752-69.402344 239.0000002-69.402344 84.894531 0 167.554687 24.003906 239.003906 69.402344zm0 0"/><path d="m411.898438 178.84375c-51.46875-33.425781-111.242188-51.085938-172.886719-51.085938-61.640625 0-121.414063 17.660157-172.867188 51.085938l-17.390625-26.796875c56.65625-36.777344 122.4375-56.230469 190.257813-56.230469 67.824219 0 133.617187 19.453125 190.277343 56.230469zm0 0"/><path d="m362.855469 261.132812c-36.777344-24.574218-79.605469-37.558593-123.84375-37.558593-44.234375 0-87.0625 12.984375-123.828125 37.558593l-17.742188-26.554687c42.035156-28.089844 90.996094-42.945313 141.570313-42.945313 50.578125 0 99.539062 14.855469 141.585937 42.929688zm0 0"/><path d="m313.289062 343.472656c-43.199218-31.523437-105.351562-31.523437-148.550781 0l-18.828125-25.804687c27.101563-19.773438 59.3125-30.214844 93.101563-30.214844 33.792969 0 66.003906 10.441406 93.105469 30.230469zm0 0"/></g><path d="m302.890625 447.148438c0 35.277343-28.597656 63.878906-63.878906 63.878906-35.277344 0-63.875-28.601563-63.875-63.878906 0-35.28125 28.597656-63.878907 63.875-63.878907 35.28125 0 63.878906 28.597657 63.878906 63.878907zm0 0" fill="#039be5"/><path d="m239.011719 479.085938c-29.667969 0-54.46875-20.441407-61.609375-47.90625-1.339844 5.140624-2.265625 10.425781-2.265625 15.96875 0 35.226562 28.648437 63.878906 63.875 63.878906 35.230469 0 63.878906-28.652344 63.878906-63.878906 0-5.542969-.925781-10.828126-2.265625-15.96875-7.140625 27.464843-31.925781 47.90625-61.613281 47.90625zm0 0" fill="#0277bd"/><path d="m223.042969 415.207031h31.941406v31.941407h-31.941406zm0 0" fill="#fff"/><path d="m220.824219 192.304688c4.964843 11.179687 11.226562 21.625 18.507812 31.285156 44.125.0625 86.84375 13.03125 123.523438 37.542968l17.742187-26.554687c-42.046875-28.089844-91.007812-42.945313-141.585937-42.945313-6.082031 0-12.152344.242188-18.1875.671876zm0 0" fill="#8fd5e5"/><path d="m210.09375 97.109375c-1.933594 9.933594-3.019531 20.15625-3.019531 30.648437 0 .605469.078125 1.179688.097656 1.769532 10.554687-1.050782 21.15625-1.769532 31.839844-1.769532 61.628906 0 121.417969 17.660157 172.886719 51.085938l17.390624-26.796875c-56.660156-36.777344-122.453124-56.230469-190.277343-56.230469-9.691407 0-19.320313.511719-28.917969 1.292969zm0 0" fill="#8fd5e5"/><path d="m239.316406 31.957031c78.714844.0625 155.335938 22.324219 221.578125 64.417969l17.121094-26.957031c-62.746094-39.875-134.144531-63.207031-208.117187-68.300781-11.546876 8.832031-21.8125 19.210937-30.582032 30.839843zm0 0" fill="#8fd5e5"/><path d="m494.527344 127.757812c0 70.554688-57.199219 127.753907-127.757813 127.753907-70.558593 0-127.757812-57.199219-127.757812-127.753907 0-70.558593 57.199219-127.757812 127.757812-127.757812 70.558594 0 127.757813 57.199219 127.757813 127.757812zm0 0" fill="#ef5350"/><path d="m423.222656 93.867188-22.582031-22.578126-33.871094 33.886719-33.871093-33.886719-22.582032 22.578126 33.871094 33.890624-33.871094 33.886719 22.582032 22.582031 33.871093-33.890624 33.871094 33.890624 22.582031-22.582031-33.871094-33.886719zm0 0" fill="#fff"/></svg>