<svg height="511pt" viewBox="-16 0 511 511.02586" width="511pt" xmlns="http://www.w3.org/2000/svg"><path d="m479.164062 96.359375c-66.320312-42.144531-143.054687-64.421875-221.882812-64.421875-78.824219 0-155.558594 22.277344-221.878906 64.421875l-17.121094-26.957031c71.449219-45.398438 154.105469-69.402344 239-69.402344s167.554688 24.003906 239 69.402344zm0 0" fill="#039be5"/><g fill="#bee4f1"><path d="m430.167969 178.84375c-51.46875-33.425781-111.257813-51.085938-172.886719-51.085938-61.625 0-121.414062 17.660157-172.886719 51.085938l-17.390625-26.796875c56.660156-36.777344 122.457032-56.230469 190.277344-56.230469 67.824219 0 133.617188 19.453125 190.277344 56.230469zm0 0"/><path d="m381.109375 261.132812c-36.761719-24.574218-79.589844-37.558593-123.828125-37.558593-44.234375 0-87.066406 12.984375-123.828125 37.558593l-17.742187-26.554687c42.035156-28.089844 90.996093-42.945313 141.570312-42.945313 50.578125 0 99.539062 14.855469 141.585938 42.929688zm0 0"/><path d="m331.558594 343.472656c-43.199219-31.523437-105.351563-31.523437-148.550782 0l-18.828124-25.804687c27.101562-19.773438 59.296874-30.214844 93.101562-30.214844 33.808594 0 66.003906 10.441406 93.105469 30.230469zm0 0"/></g><path d="m321.160156 447.148438c0 35.277343-28.597656 63.878906-63.878906 63.878906-35.277344 0-63.878906-28.601563-63.878906-63.878906 0-35.28125 28.601562-63.878907 63.878906-63.878907 35.28125 0 63.878906 28.597657 63.878906 63.878907zm0 0" fill="#039be5"/><path d="m257.28125 479.085938c-29.671875 0-54.472656-20.441407-61.609375-47.90625-1.339844 5.140624-2.269531 10.425781-2.269531 15.96875 0 35.226562 28.652344 63.878906 63.878906 63.878906 35.230469 0 63.878906-28.652344 63.878906-63.878906 0-5.542969-.925781-10.828126-2.265625-15.96875-7.140625 27.464843-31.941406 47.90625-61.613281 47.90625zm0 0" fill="#0277bd"/><path d="m241.3125 415.207031h31.941406v31.941407h-31.941406zm0 0" fill="#fff"/></svg>